<?xml version="1.0" encoding="utf-8"?><!-- Uploaded to: SVG Repo, www.svgrepo.com, Generator: SVG Repo Mixer Tools -->
<svg width="800px" height="800px" viewBox="0 0 24 24" xmlns="http://www.w3.org/2000/svg" fill="none"><path fill="#000000" stroke="#000000" stroke-linecap="round" stroke-linejoin="round" stroke-width="2" d="M20 19v-8.5a1 1 0 0 0-.4-.8l-7-5.25a1 1 0 0 0-1.2 0l-7 5.25a1 1 0 0 0-.4.8V19a1 1 0 0 0 1 1h4a1 1 0 0 0 1-1v-3a1 1 0 0 1 1-1h2a1 1 0 0 1 1 1v3a1 1 0 0 0 1 1h4a1 1 0 0 0 1-1z"/></svg>